<?xml version="1.0" encoding="UTF-8"?>
<svg version="1.1" xmlns="http://www.w3.org/2000/svg" width="2000" height="1500">
<path d="M0 0 C660 0 1320 0 2000 0 C2000 495 2000 990 2000 1500 C1340 1500 680 1500 0 1500 C0 1005 0 510 0 0 Z " fill="#122023" transform="translate(0,0)"/>
<path d="M0 0 C23.25559357 20.18101439 36.28131471 51.48413574 39.15234375 81.78515625 C39.29598148 85.00833566 39.31611497 88.22704421 39.3203125 91.453125 C39.3236409 92.36862625 39.3269693 93.2841275 39.33039856 94.22737122 C39.33544038 96.1628876 39.33780774 98.0984126 39.33764648 100.03393555 C39.33980383 102.91926494 39.35790769 105.80419269 39.37695312 108.68945312 C39.4282064 125.34382682 38.36802496 141.88486642 35.33984375 158.28515625 C35.08001709 159.71492798 35.08001709 159.71492798 34.81494141 161.17358398 C34.27991143 164.04824058 33.72269081 166.91731232 33.15234375 169.78515625 C32.98395996 170.63480957 32.81557617 171.48446289 32.64208984 172.35986328 C21.51643961 226.79341376 -5.0328715 278.09787316 -38.84765625 321.78515625 C-39.47704102 322.60959229 -39.47704102 322.60959229 -40.11914062 323.45068359 C-45.88445666 331.00240595 -51.87746005 338.20006951 -58.37890625 345.12890625 C-60.36017627 347.26065248 -62.23972652 349.42305719 -64.09765625 351.66015625 C-78.06794939 367.64985195 -105.71645044 395.28430028 -127.47265625 398.28515625 C-133.33074095 398.10280342 -138.62595266 395.22195126 -143.84765625 392.78515625 C-143.84765625 391.79515625 -143.84765625 390.80515625 -143.84765625 389.78515625 C-142.91308594 389.29789063 -141.97851562 388.810625 -141.015625 388.30859375 C-125.58171564 380.05593306 -111.56599885 369.79962111 -98.84765625 357.78515625 C-97.53971054 356.65486458 -96.22729377 355.52972314 -94.91015625 354.41015625 C-86.91918255 347.41805426 -79.68256654 339.8813885 -73.078125 331.5703125 C-70.81680778 328.74663619 -68.46209977 326.02273257 -66.09765625 323.28515625 C-59.38126471 315.22756578 -53.62738514 306.52697445 -47.84765625 297.78515625 C-47.34476074 297.03379395 -46.84186523 296.28243164 -46.32373047 295.50830078 C-26.87934887 266.35135114 -12.74468366 234.3314128 -2.84765625 200.78515625 C-2.51765625 199.69807373 -2.18765625 198.61099121 -1.84765625 197.4909668 C0.73743214 188.78533761 2.65092105 180.02325398 4.27734375 171.09765625 C4.40618958 170.39661774 4.5350354 169.69557922 4.66778564 168.97329712 C12.98273492 123.51725166 12.33775156 74.14313473 -14.84765625 34.78515625 C-28.42296398 16.09451518 -45.85470427 7.60212874 -67.84765625 2.78515625 C-68.71261719 2.58148437 -69.57757812 2.3778125 -70.46875 2.16796875 C-82.47136409 0.23651361 -95.26164661 2.23116712 -106.97265625 4.91015625 C-110.84765625 5.78515625 -110.84765625 5.78515625 -114.84765625 5.78515625 C-114.51765625 4.46515625 -114.18765625 3.14515625 -113.84765625 1.78515625 C-122.91044987 9.43030618 -131.15913348 17.76889661 -138.84765625 26.78515625 C-139.69585937 27.74421875 -140.5440625 28.70328125 -141.41796875 29.69140625 C-160.04289259 50.84842905 -175.82269789 74.36824934 -189.84765625 98.78515625 C-190.23195801 99.45224609 -190.61625977 100.11933594 -191.01220703 100.80664062 C-194.03933533 106.08920469 -196.97174168 111.4188703 -199.84765625 116.78515625 C-200.27804199 117.58711426 -200.70842773 118.38907227 -201.15185547 119.21533203 C-220.25759346 155.19532582 -233.26116096 194.05671463 -241.84765625 233.78515625 C-242.1496049 235.16669611 -242.45167597 236.54820922 -242.75390625 237.9296875 C-244.14598832 244.32288219 -244.14598832 244.32288219 -245.3671875 250.75 C-245.52574219 251.64847656 -245.68429687 252.54695313 -245.84765625 253.47265625 C-245.97140625 254.23964844 -246.09515625 255.00664063 -246.22265625 255.796875 C-247.01660774 258.32263319 -247.63826342 259.2982442 -249.84765625 260.78515625 C-252.94921875 261.11328125 -252.94921875 261.11328125 -256.47265625 261.03515625 C-257.64054687 261.0196875 -258.8084375 261.00421875 -260.01171875 260.98828125 C-262.84765625 260.78515625 -262.84765625 260.78515625 -263.84765625 259.78515625 C-264.6589574 251.8397425 -263.01150677 244.20041079 -261.34765625 236.47265625 C-261.07848389 235.2086499 -260.80931152 233.94464355 -260.53198242 232.64233398 C-242.35203398 148.62403458 -196.6198291 58.77429293 -126.84765625 5.78515625 C-125.42452418 4.65913903 -124.00277013 3.53137905 -122.58203125 2.40234375 C-121.04635208 1.19562236 -119.50989224 -0.01010621 -117.97265625 -1.21484375 C-117.2461084 -1.79218262 -116.51956055 -2.36952148 -115.77099609 -2.96435547 C-110.59958683 -6.96148141 -107.45953417 -8.21484375 -100.84765625 -8.21484375 C-98.78708124 -8.91121536 -96.74739095 -9.67026701 -94.72265625 -10.46484375 C-63.28374189 -21.97262604 -27.26364024 -21.20505352 0 0 Z " fill="#2DC93F" transform="translate(585.84765625,541.21484375)"/>
<path d="M0 0 C1.02722168 0.24145752 1.02722168 0.24145752 2.07519531 0.48779297 C21.26488 5.15737262 38.15816289 14.36856393 54 26 C55.02351562 26.75023437 56.04703125 27.50046875 57.1015625 28.2734375 C72.08824315 40.45294534 76.27794523 62.9100134 80 81 C80.22864746 82.03447266 80.22864746 82.03447266 80.46191406 83.08984375 C86.9852719 113.35371554 84.53688233 149.39244159 77.8046875 179.375 C77.18519088 182.16574204 76.6351651 184.93771261 76.1328125 187.75 C61.16136588 271.48242702 16.87984121 351.91835731 -42 413 C-42.56219238 413.58410645 -43.12438477 414.16821289 -43.70361328 414.77001953 C-51.07809452 422.38875629 -58.59589442 429.50937771 -67 436 C-68.28799794 437.01662623 -69.57573998 438.03357671 -70.86328125 439.05078125 C-99.39169996 461.40058521 -99.39169996 461.40058521 -108.42578125 461.3671875 C-113.88723656 460.58816353 -118.95548023 458.15314868 -124 456 C-124 455.01 -124 454.02 -124 453 C-121.66096657 451.2016782 -119.34800804 449.59450967 -116.875 448 C-90.67307224 430.54952194 -64.45222533 408.40770458 -45.0234375 383.58203125 C-42.82285753 380.77395527 -40.51037361 378.08257665 -38.1875 375.375 C-19.06342521 352.40837541 -3.84026073 325.90785351 9 299 C9.52327881 297.90776123 9.52327881 297.90776123 10.05712891 296.79345703 C25.43320825 264.41876639 36.30323347 229.95240804 44 195 C44.19013672 194.14237061 44.38027344 193.28474121 44.57617188 192.40112305 C54.09685695 147.39054584 52.1503683 94.67584792 29 54 C26.20911312 49.81366967 23.19438993 45.88506883 20 42 C19.278125 41.113125 18.55625 40.22625 17.8125 39.3125 C5.91473224 25.37511491 -11.59931504 15.02812473 -30 13 C-53.39342271 11.62618981 -73.91924206 14.6771919 -95.5546875 23.60546875 C-99.65536601 25.26526719 -103.78309487 26.66834575 -108 28 C-106.57159853 23.71479559 -103.40289636 22.26911861 -99.75 19.9375 C-98.99783203 19.45651855 -98.24566406 18.97553711 -97.47070312 18.47998047 C-67.79932796 -0.01921364 -34.48154412 -8.26342573 0 0 Z " fill="#2DCA3F" transform="translate(606,493)"/>
<path d="M0 0 C0.66 0 1.32 0 2 0 C7.9540595 11.99522659 13.59763294 24.05822449 18.5625 36.5 C18.97935059 37.542771 19.39620117 38.58554199 19.82568359 39.65991211 C28.68300229 62.18495819 24.37279667 78.80797746 16.65216064 101.09991455 C15.58377989 104.21266714 14.55866822 107.33965542 13.52734375 110.46484375 C8.36750721 125.94845418 2.57447194 141.06396765 -4 156 C-4.41830078 156.95616211 -4.83660156 157.91232422 -5.26757812 158.89746094 C-19.11203756 190.35925921 -35.36522875 220.75106681 -55 249 C-55.45407227 249.65838867 -55.90814453 250.31677734 -56.37597656 250.99511719 C-66.61353593 265.81500536 -77.4353845 280.18727186 -89 294 C-89.41427246 294.49918945 -89.82854492 294.99837891 -90.25537109 295.51269531 C-103.33128888 311.26576325 -117.18444622 326.93149856 -133 340 C-133.52867676 340.4424707 -134.05735352 340.88494141 -134.60205078 341.34082031 C-170.23417157 371.11283806 -170.23417157 371.11283806 -179.7109375 372.35546875 C-184.1604329 371.87458504 -187.80149122 370.28820131 -191.875 368.5 C-193.050625 367.99919922 -193.050625 367.99919922 -194.25 367.48828125 C-196.17078409 366.66843438 -198.08598082 365.83551839 -200 365 C-200 364.01 -200 363.02 -200 362 C-197.69574782 360.38518498 -195.4286708 358.96733854 -193 357.5625 C-171.38634688 344.55269223 -152.51073796 327.54938705 -134.6875 309.8125 C-134.02967529 309.15934814 -133.37185059 308.50619629 -132.6940918 307.83325195 C-128.26091273 303.38551033 -124.08698968 298.76619221 -120 294 C-119.11073901 292.97911272 -118.22142108 291.95827504 -117.33203125 290.9375 C-90.54865994 259.71099578 -67.78998297 224.13938412 -50.00097656 187.07128906 C-48.91161309 184.81710378 -47.79604554 182.57686881 -46.6796875 180.3359375 C-40.07093337 166.92990694 -34.53459102 153.17830559 -29.22363281 139.21289062 C-28.14920779 136.39177464 -27.05826867 133.57788077 -25.9609375 130.765625 C-21.79988166 119.96738421 -18.62954362 109.01471776 -15.73828125 97.81494141 C-15.01011305 95.03855937 -14.24490064 92.27503173 -13.46875 89.51171875 C-5.40063596 60.41932024 -1.33853292 30.14006878 0 0 Z " fill="#2DCA3F" transform="translate(723,599)"/>
<path d="M0 0 C1.12148438 -0.020625 2.24296875 -0.04125 3.3984375 -0.0625 C25.18202302 -0.16311702 44.16330459 9.16977106 59.5 24.25 C60.18835938 24.92546875 60.87671875 25.6009375 61.5859375 26.296875 C76.86842587 42.36462957 84.07006937 63.99731627 88.5 85.25 C88.7475 86.42046875 88.995 87.5909375 89.25 88.796875 C92.48776855 107.95367224 91.60533002 129.10538227 88.5 148.25 C88.25008301 149.83143799 88.25008301 149.83143799 87.99511719 151.44482422 C85.84220788 164.84752131 83.54757926 178.10195931 79.24511719 190.99707031 C78.38723641 193.590951 77.57346992 196.19722913 76.7578125 198.8046875 C63.64070258 240.12274182 41.58900023 285.84989452 9.5 316.25 C8.84 316.25 8.18 316.25 7.5 316.25 C8.63211956 312.69108055 9.89146694 309.20754917 11.26953125 305.73828125 C15.35012206 295.43493925 18.84453913 285.21344814 21.4921875 274.44921875 C21.66661377 273.74128174 21.84104004 273.03334473 22.02075195 272.30395508 C22.47026144 270.37745314 22.84906911 268.43484062 23.22265625 266.4921875 C24.74284612 260.44631519 28.10484978 255.12321286 31.0625 249.6875 C37.5329786 237.55076551 42.95369873 225.24008495 47.5 212.25 C47.82581055 211.32348633 48.15162109 210.39697266 48.48730469 209.44238281 C52.68594196 197.32655589 55.8618287 185.23229214 58.08251953 172.60644531 C58.49231727 170.29336473 58.928142 167.98662406 59.37109375 165.6796875 C66.70595279 126.9519747 64.19853325 84.74375129 41.99487305 51.10009766 C29.2765096 32.66807913 11.93430557 22.42454881 -9.875 18.125 C-15.71879676 17.12177309 -21.58751809 16.64210177 -27.5 16.25 C-25.88948651 10.61320277 -23.84661538 5.95129615 -19 2.4375 C-12.89440791 -0.46265624 -6.63947225 0.02970681 0 0 Z " fill="#2DCA3F" transform="translate(478.5,558.75)"/>
<path d="M0 0 C16.52365038 0 33.85186286 10.24540417 45.40625 21.28515625 C56.32955295 32.71843268 63.22231715 46.16667477 68.3125 61 C68.65800903 61.99314209 68.65800903 61.99314209 69.01049805 63.00634766 C73.40118038 76.57637577 74.49119242 89.89795159 74.39111328 104.05273438 C74.37509799 106.73359697 74.39102158 109.41293403 74.41015625 112.09375 C74.4365486 133.96324939 71.12229561 157.52362451 63 178 C62.34 178.33 61.68 178.66 61 179 C59.63814373 176.27628745 59.62349167 173.78634876 59.3125 170.75 C58.02343001 159.76811524 55.46947552 147.73337848 50.93164062 137.61865234 C49.79295393 134.41803561 49.71075228 131.72324134 49.65625 128.328125 C49.62821289 127.03221436 49.60017578 125.73630371 49.57128906 124.40112305 C49.56005005 123.72286469 49.54881104 123.04460632 49.53723145 122.34579468 C49.47468143 118.8247927 49.3714337 115.30508807 49.265625 111.78515625 C49.24497986 111.09827225 49.22433472 110.41138824 49.20306396 109.70368958 C48.33338959 82.47979048 40.23753781 55.57479903 21.35546875 35.1953125 C12.72978879 27.15612156 1.74268271 20.01303132 -10 18 C-10.28875 18.9075 -10.5775 19.815 -10.875 20.75 C-12 24 -12 24 -13.125 25.875 C-14.57086821 29.38639422 -15.23339518 32.40091244 -14 36 C-10.96095374 38.80261192 -7.49979569 40.82210857 -4 43 C-1.4375 45.3125 -1.4375 45.3125 1 48 C1.66515625 48.67289063 2.3303125 49.34578125 3.015625 50.0390625 C10.75094969 58.11642536 17.95476683 67.57502074 19 79 C15.78702833 76.28682392 12.60829326 73.57154422 9.54296875 70.69140625 C2.77535264 64.33995395 -4.21423433 59.04938914 -12 54 C-13.27230469 53.13181641 -13.27230469 53.13181641 -14.5703125 52.24609375 C-17.3118292 50.84007473 -18.9695773 50.89949004 -22 51 C-26.31459178 66.34439994 -26.31459178 66.34439994 -29.875 81.875 C-32.93209891 96.42613513 -38.29000694 110.39378986 -43.41748047 124.31762695 C-51.56693242 146.5227115 -57.1418469 169.19873149 -62.30078125 192.24609375 C-62.45358047 192.92812866 -62.6063797 193.61016357 -62.7638092 194.31286621 C-63.78657913 198.92326194 -64.7010801 203.54462141 -65.49682617 208.19946289 C-66 210 -66 210 -68 212 C-69.87939453 212.22705078 -69.87939453 212.22705078 -72.1328125 212.1953125 C-73.34130859 212.18564453 -73.34130859 212.18564453 -74.57421875 212.17578125 C-75.41597656 212.15902344 -76.25773437 212.14226562 -77.125 212.125 C-77.97449219 212.11597656 -78.82398438 212.10695313 -79.69921875 212.09765625 C-81.79959884 212.07405647 -83.89983444 212.03818483 -86 212 C-86.55923022 203.2672058 -84.86620337 195.09889864 -83 186.625 C-82.84449677 185.90579376 -82.68899353 185.18658752 -82.52877808 184.44558716 C-79.34589279 169.76466784 -75.4362474 155.35461584 -71 141 C-70.69513672 139.99775391 -70.39027344 138.99550781 -70.07617188 137.96289062 C-58.38721897 99.86649769 -40.8182753 62.92123501 -20 29 C-19.52304687 28.21302734 -19.04609375 27.42605469 -18.5546875 26.61523438 C-6.15384615 6.15384615 -6.15384615 6.15384615 0 0 Z " fill="#2DC93F" transform="translate(443,590)"/>
<path d="M0 0 C0.66 0 1.32 0 2 0 C3.45960519 10.40145833 4.53617454 20.73562264 4.86816406 31.23632812 C5.01820168 34.38156122 5.30783472 37.50419425 5.5859375 40.640625 C6.86704535 59.39706377 2.39100117 71.19412323 -7.86132812 86.74658203 C-9.97239673 89.958009 -11.9890425 93.21173674 -13.984375 96.49609375 C-20.70157106 107.51338393 -27.68374534 118.37050654 -35 129 C-35.43812012 129.63856934 -35.87624023 130.27713867 -36.32763672 130.93505859 C-47.31149982 146.88311748 -58.87887491 162.48293318 -71.54296875 177.140625 C-74.00594275 180.00691588 -76.38204168 182.9299762 -78.75 185.875 C-81.73720507 189.54788025 -84.82077027 192.95448626 -88.2331543 196.23217773 C-89.92973168 197.92969285 -91.47663602 199.68494532 -93.02734375 201.515625 C-97.29880245 206.42926842 -101.87654643 211.02720153 -106.48803711 215.6184082 C-107.93524385 217.06025221 -109.37702026 218.50737116 -110.81835938 219.95507812 C-116.04037994 225.18157477 -121.34360275 230.24462178 -127 235 C-127.90431763 235.76437378 -127.90431763 235.76437378 -128.8269043 236.54418945 C-136.53028084 242.99825818 -144.42492656 249.16524382 -152.5625 255.0625 C-153.29968262 255.5982666 -154.03686523 256.1340332 -154.79638672 256.68603516 C-156.84544965 258.15391611 -158.91419557 259.58494501 -161 261 C-161.60569824 261.42651855 -162.21139648 261.85303711 -162.83544922 262.29248047 C-165.81098456 264.22786207 -167.74653168 265.00208984 -171.31640625 264.97265625 C-175.98056543 263.74108081 -180.43695247 262.16584715 -184.9375 260.4375 C-186.24944336 259.9434668 -186.24944336 259.9434668 -187.58789062 259.43945312 C-189.72774809 258.63262162 -191.86491864 257.81936819 -194 257 C-190.50874198 253.17581273 -186.49646706 250.46319163 -182.25 247.5625 C-170.59501239 239.46501967 -159.62345363 230.5817045 -149.16796875 220.984375 C-147.08131206 219.07442617 -144.95611046 217.22054653 -142.8125 215.375 C-139.50511569 212.51038925 -136.44991395 209.46444383 -133.4453125 206.28515625 C-132 205 -132 205 -130 205 C-129.73968994 204.41226807 -129.47937988 203.82453613 -129.21118164 203.21899414 C-127.9205997 200.85453148 -126.55805479 199.35846664 -124.62109375 197.49609375 C-123.95142578 196.84326416 -123.28175781 196.19043457 -122.59179688 195.51782227 C-121.88087891 194.83131592 -121.16996094 194.14480957 -120.4375 193.4375 C-114.88993912 187.9928772 -109.72654675 182.53218449 -104.921875 176.41796875 C-103.11305676 174.14224011 -101.21967601 172.01152873 -99.25 169.875 C-78.50909494 146.75197119 -61.61332387 119.73950584 -46 93 C-45.47599609 92.10442383 -44.95199219 91.20884766 -44.41210938 90.28613281 C-27.53281303 61.25251848 -12.85862079 31.01134661 0 0 Z " fill="#2DC93F" transform="translate(762,724)"/>
<path d="M0 0 C49.44444444 0 49.44444444 0 58 7 C64.69193913 13.74019831 66.43500673 19.39634106 66.43823242 28.8293457 C66.23730229 36.58595684 63.60373591 42.53853953 58.1875 48.125 C57.465625 48.74375 56.74375 49.3625 56 50 C56.50789063 50.25652344 57.01578125 50.51304687 57.5390625 50.77734375 C64.36415171 54.57332033 68.14925709 59.56328754 71.140625 66.734375 C73.40414583 75.33575416 73.762237 87.21693076 69.31640625 95.1171875 C68.88199219 95.73851562 68.44757813 96.35984375 68 97 C67.51402344 97.70382812 67.02804687 98.40765625 66.52734375 99.1328125 C61.42717938 105.66777488 54.95917313 109.01020672 47 111 C31.49 111 15.98 111 0 111 C0 74.37 0 37.74 0 0 Z " fill="#FBFBFB" transform="translate(1274,639)"/>
<path d="M0 0 C0.72574219 0.41507813 1.45148438 0.83015625 2.19921875 1.2578125 C3.36517578 1.91136719 3.36517578 1.91136719 4.5546875 2.578125 C14.63555982 8.75835828 21.13241948 17.82154688 24.51171875 29.1328125 C26.77157984 40.05913119 25.1367191 50.28993213 19.65625 59.98828125 C12.59709805 70.66585433 4.42045166 76.00370569 -7.71484375 79.8671875 C-16.39560319 81.49279788 -25.02856151 81.20734039 -32.71484375 76.6875 C-37.2048497 73.61008019 -40.48266339 70.68196964 -43.80078125 66.2578125 C-44.13078125 83.0878125 -44.46078125 99.9178125 -44.80078125 117.2578125 C-48.43078125 117.2578125 -52.06078125 117.2578125 -55.80078125 117.2578125 C-55.80078125 78.3178125 -55.80078125 39.3778125 -55.80078125 -0.7421875 C-52.17078125 -0.7421875 -48.54078125 -0.7421875 -44.80078125 -0.7421875 C-44.47078125 3.2178125 -44.14078125 7.1778125 -43.80078125 11.2578125 C-42.89328125 10.0615625 -41.98578125 8.8653125 -41.05078125 7.6328125 C-30.77221572 -3.87426683 -13.89405058 -6.74651692 0 0 Z " fill="#FBFBFB" transform="translate(1169.80078125,812.7421875)"/>
<path d="M0 0 C3.63 0 7.26 0 11 0 C11.33 17.16 11.66 34.32 12 52 C14.31 49.36 16.62 46.72 19 44 C28.4689376 37.35761094 37.64255366 36.91157806 49 38 C59.83622847 40.47927102 68.08740287 47.57553917 74.4375 56.5 C77.09362545 60.77681216 78.652674 65.17288958 80 70 C80.33 70.99 80.66 71.98 81 73 C82.18439861 84.14499676 79.27040579 94.99738921 72.60546875 104.015625 C72.07566406 104.67046875 71.54585937 105.3253125 71 106 C70.52175781 106.61359375 70.04351563 107.2271875 69.55078125 107.859375 C63.26352252 115.01766453 52.37519054 120.51570782 42.86328125 121.23828125 C31.31951727 121.47957005 23.59100398 118.77466423 15 111 C14.01 109.68 13.02 108.36 12 107 C11.67 110.96 11.34 114.92 11 119 C7.37 119 3.74 119 0 119 C0 79.73 0 40.46 0 0 Z " fill="#FAFAFA" transform="translate(1506,631)"/>
<path d="M0 0 C4.46306897 2.91366293 7.27645882 6.49568189 10 11 C10.495 4.565 10.495 4.565 11 -2 C14.63 -2 18.26 -2 22 -2 C22 24.07 22 50.14 22 77 C18.04 77 14.08 77 10 77 C9.67 72.71 9.34 68.42 9 64 C7.7625 65.8253125 7.7625 65.8253125 6.5 67.6875 C1.74809813 74.00473426 -4.20623797 77.54692572 -12 79 C-23.67622451 80.2221491 -34.47640727 77.02736754 -43.78515625 69.90625 C-51.26420192 63.46925831 -58.23900929 54.28062855 -59.17700195 44.07397461 C-59.56986364 30.15164525 -58.72338894 19.73669111 -49 9 C-36.39178441 -3.77195865 -16.51055339 -10.01727251 0 0 Z " fill="#F7F7F7" transform="translate(968,673)"/>
<path d="M0 0 C4.76652571 2.94303278 8.48652731 6.88805761 12.25 11 C12.58 7.37 12.91 3.74 13.25 0 C16.88 0 20.51 0 24.25 0 C24.25 26.07 24.25 52.14 24.25 79 C20.62 79 16.99 79 13.25 79 C12.92 74.71 12.59 70.42 12.25 66 C11.198125 67.2375 10.14625 68.475 9.0625 69.75 C2.65458928 76.98762027 -2.98715821 80.25157884 -12.6796875 81.32421875 C-25.58106281 81.8101147 -36.01425806 76.34973181 -45.4375 67.875 C-52.93875989 60.07648739 -55.93565207 50.36371331 -56 39.875 C-56.020625 39.05773437 -56.04125 38.24046875 -56.0625 37.3984375 C-56.13417221 26.07422849 -51.73038049 17.46627127 -44.1875 9.1875 C-43.383125 8.465625 -42.57875 7.74375 -41.75 7 C-41.04875 6.34 -40.3475 5.68 -39.625 5 C-28.46343428 -2.76456746 -12.90275672 -5.88125655 0 0 Z " fill="#FAFBFB" transform="translate(1410.75,671)"/>
<path d="M0 0 C4.181329 3.2264767 8.72483062 6.84419248 11.12109375 11.63671875 C11.61609375 5.20171875 11.61609375 5.20171875 12.12109375 -1.36328125 C15.42109375 -1.36328125 18.72109375 -1.36328125 22.12109375 -1.36328125 C22.12109375 24.70671875 22.12109375 50.77671875 22.12109375 77.63671875 C18.49109375 77.63671875 14.86109375 77.63671875 11.12109375 77.63671875 C10.79109375 73.34671875 10.46109375 69.05671875 10.12109375 64.63671875 C9.62609375 65.50296875 9.13109375 66.36921875 8.62109375 67.26171875 C4.27655587 73.68738142 -1.89457617 77.26535622 -9.3125 79.16796875 C-20.61028696 81.23149148 -31.01612501 78.46324677 -40.59375 72.30078125 C-49.55702658 65.77367728 -55.1383455 57.35020974 -57.87890625 46.63671875 C-59.56362445 34.42637583 -58.29713796 22.98329598 -50.859375 12.8984375 C-38.92932688 -1.20450906 -17.4538184 -10.55698895 0 0 Z " fill="#142225" transform="translate(1197.87890625,672.36328125)"/>
<path d="M0 0 C8.56393765 6.25283004 14.5739863 15.08519424 17.35546875 25.33984375 C17.79991785 28.601654 17.88009067 31.80060817 17.85546875 35.08984375 C17.85047363 35.96801758 17.84547852 36.84619141 17.84033203 37.75097656 C17.49748885 50.58986273 11.76075793 60.37666109 2.60546875 69.08984375 C-5.61153255 76.01108715 -15.46278034 77.7910878 -25.91015625 77.671875 C-36.6279196 76.71893579 -44.53007072 71.11375517 -51.64453125 63.33984375 C-58.40946449 54.91585712 -61.22143236 46.80927501 -61.14453125 36.08984375 C-61.13881104 35.16397461 -61.13309082 34.23810547 -61.12719727 33.28417969 C-60.82949563 21.837201 -56.7370801 12.51080877 -48.64453125 4.33984375 C-45.47491575 1.68296017 -42.2055258 -0.56110355 -38.64453125 -2.66015625 C-38.04382812 -3.02238281 -37.443125 -3.38460937 -36.82421875 -3.7578125 C-25.66774291 -9.13593426 -10.01202402 -6.28524403 0 0 Z " fill="#132124" transform="translate(1082.64453125,815.66015625)"/>
<path d="M0 0 C0.33 0 0.66 0 1 0 C1.42767607 7.79104833 0.19683904 14.60185773 -1.75 22.125 C-2.02585937 23.22521484 -2.30171875 24.32542969 -2.5859375 25.45898438 C-3.13558088 27.6485684 -3.6894957 29.83708541 -4.24804688 32.02441406 C-4.88376159 34.54002803 -5.49244707 37.05833528 -6.078125 39.5859375 C-6.96921476 43.41446093 -7.95961063 47.20888417 -9 51 C-9.18433594 51.6899707 -9.36867188 52.37994141 -9.55859375 53.09082031 C-12.63859105 64.25832686 -17.22767422 71.88380059 -25.25341797 80.18701172 C-27.06558388 82.06807742 -28.83376417 83.98380664 -30.59765625 85.91015625 C-38.20532094 94.1699626 -46.07485833 102.17063737 -54 110.125 C-54.87197021 111.00164307 -55.74394043 111.87828613 -56.64233398 112.78149414 C-61.60202462 117.72881528 -66.68054544 122.44445034 -72 127 C-73.16850422 128.03308154 -74.33521018 129.06820107 -75.5 130.10546875 C-83.78546544 137.42535247 -92.3199749 144.26589584 -101.28027344 150.74316406 C-102.78238685 151.84096075 -104.25705734 152.97611043 -105.7265625 154.1171875 C-106.47679687 154.67664063 -107.22703125 155.23609375 -108 155.8125 C-108.598125 156.27269531 -109.19625 156.73289062 -109.8125 157.20703125 C-116.69458955 159.70178871 -124.65306018 155.47189873 -131 152.9375 C-132.44826172 152.37192383 -132.44826172 152.37192383 -133.92578125 151.79492188 C-136.28718868 150.87140115 -138.6449741 149.93964767 -141 149 C-141 148.34 -141 147.68 -141 147 C-139.31933614 145.76448494 -137.57635249 144.61353171 -135.8125 143.5 C-122.21501464 134.65363599 -109.54379192 124.27120732 -97.58203125 113.3359375 C-96.20196424 112.08740486 -94.81621677 110.84430603 -93.39624023 109.64135742 C-87.02309056 104.21387379 -81.14997147 98.30121542 -75.24536133 92.37573242 C-73.44137915 90.56639067 -71.63211335 88.76245681 -69.82226562 86.95898438 C-64.00180188 81.14222672 -58.30165654 75.30048039 -53 69 C-52.02754311 67.88150532 -51.05361251 66.76429002 -50.078125 65.6484375 C-43.12692994 57.62335249 -36.48069884 49.40804422 -30 41 C-29.49355957 40.34660645 -28.98711914 39.69321289 -28.46533203 39.02001953 C-14.57533622 21.11318075 -14.57533622 21.11318075 -1.69140625 2.48046875 C-1.13324219 1.66191406 -0.57507813 0.84335937 0 0 Z " fill="#2DC93F" transform="translate(760,851)"/>
<path d="M0 0 C7.8574908 6.61949385 12.99749386 15.9874693 15 26 C15 29.96 15 33.92 15 38 C-7.11 38 -29.22 38 -52 38 C-48.09094365 48.74990496 -44.91041078 56.39846347 -35 62 C-29.2159176 64.69923845 -22.78084707 65.04363878 -16.63671875 63.34765625 C-9.82865734 60.60797005 -4.07370399 56.11055598 0 50 C1.81325551 50.11351517 3.62563357 50.24112961 5.4375 50.375 C6.44683594 50.44460938 7.45617188 50.51421875 8.49609375 50.5859375 C9.73552734 50.79089844 9.73552734 50.79089844 11 51 C11.33 51.66 11.66 52.32 12 53 C4.98614638 63.89339141 -2.15378031 70.53089424 -14.1875 75.25 C-25.05134528 77.38714989 -35.04123673 76.44129599 -44.47265625 70.421875 C-54.04637508 63.32549577 -59.23538743 55.29383772 -63 44 C-64.34962999 30.10222786 -62.99965127 18.78919777 -54.8125 7.1875 C-40.83691418 -9.51650822 -17.66468025 -12.45290775 0 0 Z " fill="#F8F8F8" transform="translate(1658,676)"/>
<path d="M0 0 C1.1897644 0.00858032 1.1897644 0.00858032 2.40356445 0.01733398 C11.16621871 0.28368424 16.92553533 3.09133072 23.1875 9.1875 C24.19752541 10.28250351 25.19919704 11.38535149 26.1875 12.5 C27.1775 13.49 27.1775 13.49 28.1875 14.5 C28.97125 13.46875 29.755 12.4375 30.5625 11.375 C34.95122342 6.22165412 40.78278294 2.63490569 47.1875 0.5 C58.74628137 -0.30032425 68.15285865 0.17170543 77.5 7.75 C83.37939819 13.29682617 87.73471222 20.13922476 88.42800903 28.34750366 C88.42356781 29.32901398 88.41912659 30.31052429 88.41455078 31.32177734 C88.41439972 32.44248627 88.41424866 33.56319519 88.41409302 34.71786499 C88.40377045 35.91182892 88.39344788 37.10579285 88.3828125 38.3359375 C88.3799826 39.57042633 88.37715271 40.80491516 88.37423706 42.07681274 C88.36306522 46.00964149 88.33796564 49.94224037 88.3125 53.875 C88.30133825 56.54556959 88.29334119 59.21613701 88.28515625 61.88671875 C88.26313562 68.42456739 88.22862592 74.96224475 88.1875 81.5 C84.5575 81.5 80.9275 81.5 77.1875 81.5 C77.1781543 80.00742676 77.16880859 78.51485352 77.15917969 76.97705078 C77.11910815 71.40432619 77.05330123 65.83214372 76.97998047 60.25976562 C76.95187023 57.85456338 76.93060658 55.44927047 76.91650391 53.04394531 C76.89493692 49.57309886 76.84821413 46.10333127 76.796875 42.6328125 C76.79564636 41.56886261 76.79441772 40.50491272 76.79315186 39.40872192 C76.64768889 31.88201644 75.65762897 24.35733314 70.43792725 18.5552063 C64.36132218 12.95640191 58.54178828 11.98859159 50.421875 12.1171875 C44.43874424 12.82533583 40.96864307 15.67071793 36.875 19.875 C32.18994626 27.16286137 31.72532808 33.01916406 31.67578125 41.55859375 C31.64885445 43.27502831 31.64885445 43.27502831 31.62138367 45.02613831 C31.56741547 48.66322195 31.53342731 52.30017534 31.5 55.9375 C31.46681513 58.41082536 31.43232439 60.88413357 31.39648438 63.35742188 C31.31169629 69.40485376 31.24482016 75.45224791 31.1875 81.5 C27.5575 81.5 23.9275 81.5 20.1875 81.5 C20.18862793 79.91654785 20.18975586 78.3330957 20.19091797 76.70166016 C20.18723053 70.79342345 20.14428811 64.88599632 20.08984375 58.97802734 C20.07174202 56.42729934 20.06410458 53.87647372 20.06738281 51.32568359 C20.0702564 47.64605032 20.03476517 43.96841744 19.9921875 40.2890625 C20.00128143 39.15949127 20.01037537 38.02992004 20.01974487 36.86611938 C19.88003949 29.15269972 18.26491551 23.45500668 13.1875 17.5 C6.67297645 12.66828455 0.1811728 11.37032581 -7.8125 12.5 C-14.03535921 14.14067851 -18.51671148 17.43466809 -21.91894531 22.85742188 C-24.60849995 28.43207797 -24.41531535 34.00790314 -24.421875 40.09375 C-24.43841125 41.28101685 -24.45494751 42.46828369 -24.47198486 43.69152832 C-24.52033463 47.4610722 -24.54180804 51.23021298 -24.5625 55 C-24.59067039 57.5651243 -24.6205993 60.13022994 -24.65234375 62.6953125 C-24.72609088 68.96350848 -24.77574565 75.23148237 -24.8125 81.5 C-28.7725 81.5 -32.7325 81.5 -36.8125 81.5 C-36.8125 55.43 -36.8125 29.36 -36.8125 2.5 C-33.1825 2.5 -29.5525 2.5 -25.8125 2.5 C-25.4825 5.47 -25.1525 8.44 -24.8125 11.5 C-24.24402344 10.95730469 -23.67554688 10.41460938 -23.08984375 9.85546875 C-22.31769531 9.14003906 -21.54554688 8.42460938 -20.75 7.6875 C-19.61884766 6.62595703 -19.61884766 6.62595703 -18.46484375 5.54296875 C-12.62020098 1.04113051 -7.15434618 -0.05989121 0 0 Z " fill="#F8F8F8" transform="translate(1041.8125,668.5)"/>
<path d="M0 0 C4.94748232 3.57728406 9.31510246 8.01878776 12.29296875 13.390625 C12.29296875 14.380625 12.29296875 15.370625 12.29296875 16.390625 C7.34296875 17.875625 7.34296875 17.875625 2.29296875 19.390625 C1.60074219 18.48570312 1.60074219 18.48570312 0.89453125 17.5625 C-5.16574503 10.13686503 -11.28409341 6.88785565 -20.70703125 5.390625 C-31.6301305 4.67493321 -40.25281761 5.13359047 -49.64453125 11.328125 C-53.6434171 15.32701085 -55.13724623 18.6676633 -55.14453125 24.328125 C-54.98604257 29.49485598 -54.48711232 32.61054393 -50.70703125 36.390625 C-45.44997008 39.65142991 -40.10439705 41.23080586 -34.08203125 42.390625 C-32.49546196 42.72225205 -30.90952657 43.05692539 -29.32421875 43.39453125 C-28.54530273 43.55969238 -27.76638672 43.72485352 -26.96386719 43.89501953 C-12.7875552 47.00816463 0.53351273 51.37235159 9.7421875 63.26171875 C13.52997257 69.65443671 13.2978576 77.03191959 11.66796875 84.1015625 C8.5629711 93.11160031 2.59638695 98.42520185 -5.70703125 102.765625 C-18.2122086 108.51082508 -31.34763741 109.03250432 -44.70703125 105.390625 C-53.25094894 102.15606587 -61.28632167 97.52471099 -65.859375 89.32421875 C-66.70703125 87.390625 -66.70703125 87.390625 -67.70703125 84.390625 C-60.65622294 80.45529013 -60.65622294 80.45529013 -56.70703125 81.390625 C-55.36302195 83.38346638 -54.03161833 85.38482171 -52.70703125 87.390625 C-45.09802395 93.77580595 -35.62241292 96.01042889 -25.8671875 95.74609375 C-18.21423723 94.88525509 -9.4663031 92.70687594 -3.70703125 87.390625 C-0.0400355 82.20824614 1.10205196 77.66101988 0.29296875 71.390625 C-2.75564581 65.29339588 -7.07675097 62.34406696 -13.4140625 60.046875 C-14.77921908 59.64981422 -16.14794754 59.26488142 -17.51953125 58.890625 C-18.25365234 58.68123291 -18.98777344 58.47184082 -19.74414062 58.25610352 C-25.02873272 56.77585554 -30.35359689 55.53023278 -35.70703125 54.328125 C-47.3271312 51.70211371 -57.70827567 47.53038836 -64.70703125 37.390625 C-68.06518595 30.78815135 -67.6545107 21.96204043 -66.171875 14.80859375 C-62.90557454 5.47375692 -55.60723347 0.73146798 -47.34765625 -3.9453125 C-32.8972143 -10.43420522 -13.351456 -7.93766215 0 0 Z " fill="#F9F9F9" transform="translate(911.70703125,785.609375)"/>
<path d="M0 0 C0.99 0.495 0.99 0.495 2 1 C1.19892822 1.79059814 0.39785645 2.58119629 -0.42749023 3.39575195 C-3.44646198 6.37805869 -6.45842819 9.36736144 -9.46850586 12.35864258 C-10.76320444 13.64338811 -12.05970465 14.92632106 -13.3581543 16.20727539 C-21.06832381 23.81626938 -28.31057506 31.46595608 -35 40 C-35.95167906 41.13990648 -36.90798833 42.2759811 -37.87109375 43.40625 C-56.3887202 65.5434893 -71.61730743 91.09969545 -84.06884766 117.06835938 C-85.01331185 119.02761493 -85.97999717 120.97476518 -86.94921875 122.921875 C-95.14716687 139.60832121 -101.45658101 157.26936399 -107 175 C-107.33386719 176.05960938 -107.66773438 177.11921875 -108.01171875 178.2109375 C-112.6970376 193.80397494 -115.92519052 209.84364928 -118.09985352 225.96923828 C-118.90788713 231.90788713 -118.90788713 231.90788713 -120 233 C-122.35313555 233.07271741 -124.70833668 233.08370868 -127.0625 233.0625 C-128.35285156 233.05347656 -129.64320313 233.04445313 -130.97265625 233.03515625 C-132.47119141 233.01775391 -132.47119141 233.01775391 -134 233 C-134.31254538 225.39893854 -133.42480449 218.38308447 -131.9375 210.9375 C-131.60468018 209.24826416 -131.60468018 209.24826416 -131.26513672 207.52490234 C-119.75803156 151.05907327 -94.34332674 96.97498649 -57 53 C-56.16984375 51.98550781 -55.3396875 50.97101562 -54.484375 49.92578125 C-41.33823665 34.00497461 -26.73680762 19.41917396 -9.93164062 7.39160156 C-6.58293341 4.97911027 -3.29458436 2.48563651 0 0 Z " fill="#2DC73F" transform="translate(426,569)"/>
<path d="M0 0 C6.22683903 4.458126 10.03483914 10.65424586 12 18 C13.87961308 29.97425793 12.11241497 40.08572459 5 50 C-0.53262651 55.87841566 -6.8856664 58.00426954 -14.875 58.3125 C-23.56709914 58.0886126 -30.75710249 55.0851822 -37 49 C-44.07155909 40.10959201 -45.9751229 32.1228376 -45.25146484 20.94140625 C-44.66019032 16.37653733 -42.54985704 12.74324943 -40 9 C-39.4225 8.0925 -38.845 7.185 -38.25 6.25 C-27.56803236 -4.43196764 -13.39730815 -7.57827532 0 0 Z " fill="#142225" transform="translate(1411,683)"/>
<path d="M0 0 C4.7022911 2.55998656 8.00945575 5.42868975 10.9140625 9.921875 C11.64689453 11.03369141 11.64689453 11.03369141 12.39453125 12.16796875 C16.58263609 19.45109535 16.86516596 27.2769417 15.7265625 35.484375 C13.27204069 43.49766678 8.88974896 50.03526784 1.7265625 54.484375 C-6.05068121 58.44391397 -14.25844716 60.23096381 -22.7890625 57.75390625 C-27.56400876 55.81704891 -30.89550075 53.44138663 -34.2734375 49.484375 C-34.9746875 48.741875 -35.6759375 47.999375 -36.3984375 47.234375 C-42.23562326 38.67316922 -42.35857452 28.51933315 -41.2734375 18.484375 C-39.48727009 10.81873985 -34.3631235 4.35971737 -27.984375 -0.125 C-18.21008787 -5.64824797 -9.98015036 -4.35790932 0 0 Z " fill="#142225" transform="translate(1559.2734375,682.515625)"/>
<path d="M0 0 C2.875 2.4375 2.875 2.4375 5 5 C5.70125 5.78375 6.4025 6.5675 7.125 7.375 C11.55106868 13.57149615 12.53113121 18.86064445 12.4375 26.3125 C12.42992676 27.15264648 12.42235352 27.99279297 12.41455078 28.85839844 C12.1802444 37.68678908 10.00111654 44.94411801 3.80859375 51.4609375 C-2.7884018 57.07479549 -9.29790859 58.78520892 -17.88671875 58.421875 C-22.48372626 57.79894299 -26.03641723 56.35946086 -30 54 C-30.62519531 53.66097656 -31.25039063 53.32195313 -31.89453125 52.97265625 C-38.61662674 48.85738646 -42.56376049 41.33076595 -45 34 C-46.29938894 23.99220631 -44.62541266 16.35740115 -39 8 C-29.30376046 -4.4988822 -13.8470601 -7.60230751 0 0 Z " fill="#142225" transform="translate(965,683)"/>
<path d="M0 0 C7.7812477 4.67397094 13.87989417 11.08164897 16.4375 19.9375 C17.7016407 28.5388253 17.58182577 37.26583271 12.984375 44.859375 C7.65367743 52.02081719 1.88981977 56.12006008 -6.5625 58.9375 C-15.92933254 59.60381367 -22.64370593 58.98715232 -30.6875 54 C-36.67357264 48.65353512 -40.23573008 39.49085134 -40.80078125 31.6171875 C-41.00505245 21.14560092 -39.833497 12.33360675 -32.29296875 4.4765625 C-23.39859456 -3.43400958 -10.93502754 -5.03278791 0 0 Z " fill="#132124" transform="translate(1166.5625,823.0625)"/>
<path d="M0 0 C4.181329 3.2264767 8.72483062 6.84419248 11.12109375 11.63671875 C11.61609375 5.20171875 11.61609375 5.20171875 12.12109375 -1.36328125 C15.42109375 -1.36328125 18.72109375 -1.36328125 22.12109375 -1.36328125 C22.12109375 24.70671875 22.12109375 50.77671875 22.12109375 77.63671875 C18.49109375 77.63671875 14.86109375 77.63671875 11.12109375 77.63671875 C10.79109375 73.34671875 10.46109375 69.05671875 10.12109375 64.63671875 C9.62609375 65.50296875 9.13109375 66.36921875 8.62109375 67.26171875 C4.27655587 73.68738142 -1.89457617 77.26535622 -9.3125 79.16796875 C-20.61028696 81.23149148 -31.01612501 78.46324677 -40.59375 72.30078125 C-49.55702658 65.77367728 -55.1383455 57.35020974 -57.87890625 46.63671875 C-59.56362445 34.42637583 -58.29713796 22.98329598 -50.859375 12.8984375 C-38.92932688 -1.20450906 -17.4538184 -10.55698895 0 0 Z M-40.87890625 18.63671875 C-47.04651182 26.74271464 -47.82686845 34.67126617 -46.87890625 44.63671875 C-44.62797464 53.85786473 -39.76683508 60.02645728 -31.81640625 65.01171875 C-24.93211667 69.0792137 -17.73718854 69.38172473 -9.87890625 68.63671875 C-2.41262695 66.27443694 3.28485902 61.41406677 7.12109375 54.63671875 C11.44475686 46.17416446 11.5974924 34.97292964 9.46484375 25.8203125 C6.29115481 17.95448863 0.6458075 11.77474108 -7.08203125 8.328125 C-20.07525427 3.32855875 -31.93104141 8.7469734 -40.87890625 18.63671875 Z " fill="#FBFBFB" transform="translate(1197.87890625,672.36328125)"/>
<path d="M0 0 C3.63 0 7.26 0 11 0 C11.33 16.17 11.66 32.34 12 49 C14.97 46.36 17.94 43.72 21 41 C28.88896263 36.64598237 38.29703388 36.74430104 46.98046875 38.65625 C56.00960117 41.90393794 62.84864471 48.39156945 67 57 C68.55006503 61.08911007 69.24681068 64.45483956 69.22705078 68.82177734 C69.22689972 69.94248627 69.22674866 71.06319519 69.22659302 72.21786499 C69.21627045 73.41182892 69.20594788 74.60579285 69.1953125 75.8359375 C69.1924826 77.07042633 69.18965271 78.30491516 69.18673706 79.57681274 C69.17556522 83.50964149 69.15046564 87.44224037 69.125 91.375 C69.11383825 94.04556959 69.10584119 96.71613701 69.09765625 99.38671875 C69.07563562 105.92456739 69.04112592 112.46224475 69 119 C65.37 119 61.74 119 58 119 C57.99589111 117.47713379 57.99178223 115.95426758 57.98754883 114.38525391 C57.96567217 108.7006713 57.91129286 103.01677245 57.84741211 97.33251953 C57.82430659 94.87881047 57.80985401 92.42500328 57.80444336 89.97119141 C57.79509979 86.43069833 57.7539873 82.89173303 57.70703125 79.3515625 C57.7109639 78.26573883 57.71489655 77.17991516 57.71894836 76.06118774 C57.58006653 68.70582657 56.07773453 63.18054489 52 57 C49.76813112 54.71370052 49.76813112 54.71370052 47.3125 53.4375 C46.54550781 52.98246094 45.77851562 52.52742187 44.98828125 52.05859375 C39.09794124 48.92247952 31.97901767 48.89471731 25.5390625 50.68359375 C19.60959546 53.42114462 16.14321741 57.53720393 13.39526367 63.45703125 C11.44487926 68.86662445 11.52215559 74.24255275 11.48828125 79.9375 C11.47033005 81.05817871 11.45237885 82.17885742 11.43388367 83.33349609 C11.37999656 86.88895991 11.3459536 90.44429111 11.3125 94 C11.27930795 96.42059128 11.24481655 98.84116511 11.20898438 101.26171875 C11.12428216 107.17438318 11.05736767 113.08700974 11 119 C7.37 119 3.74 119 0 119 C0 79.73 0 40.46 0 0 Z " fill="#FCFCFC" transform="translate(943,772)"/>
<path d="M0 0 C8.56393765 6.25283004 14.5739863 15.08519424 17.35546875 25.33984375 C17.79991785 28.601654 17.88009067 31.80060817 17.85546875 35.08984375 C17.85047363 35.96801758 17.84547852 36.84619141 17.84033203 37.75097656 C17.49748885 50.58986273 11.76075793 60.37666109 2.60546875 69.08984375 C-5.61153255 76.01108715 -15.46278034 77.7910878 -25.91015625 77.671875 C-36.6279196 76.71893579 -44.53007072 71.11375517 -51.64453125 63.33984375 C-58.40946449 54.91585712 -61.22143236 46.80927501 -61.14453125 36.08984375 C-61.13881104 35.16397461 -61.13309082 34.23810547 -61.12719727 33.28417969 C-60.82949563 21.837201 -56.7370801 12.51080877 -48.64453125 4.33984375 C-45.47491575 1.68296017 -42.2055258 -0.56110355 -38.64453125 -2.66015625 C-38.04382812 -3.02238281 -37.443125 -3.38460937 -36.82421875 -3.7578125 C-25.66774291 -9.13593426 -10.01202402 -6.28524403 0 0 Z M-44.64453125 16.33984375 C-50.18889625 24.76301365 -50.82643938 34.50940874 -49.64453125 44.33984375 C-48.46631361 48.07715011 -46.83914569 51.10870588 -44.64453125 54.33984375 C-44.08765625 55.24734375 -43.53078125 56.15484375 -42.95703125 57.08984375 C-37.36530798 62.53043937 -30.43678234 66.43760955 -22.58203125 66.65234375 C-14.41562983 66.53383397 -8.24316122 64.19909333 -2.26953125 58.58984375 C5.08873453 50.63697063 7.00462757 42.15216225 6.7578125 31.56640625 C6.24247439 23.42736524 2.29769961 16.77884631 -3.58203125 11.27734375 C-17.4532658 0.5871066 -33.45194875 3.97953118 -44.64453125 16.33984375 Z " fill="#F9F9F9" transform="translate(1082.64453125,815.66015625)"/>
<path d="M0 0 C21.45 0 42.9 0 65 0 C65 3.63 65 7.26 65 11 C47.18 11 29.36 11 11 11 C11 22.55 11 34.1 11 46 C26.51 46 42.02 46 58 46 C58 49.63 58 53.26 58 57 C42.82 57 27.64 57 12 57 C12 74.82 12 92.64 12 111 C8.04 111 4.08 111 0 111 C0 74.37 0 37.74 0 0 Z " fill="#F6F7F7" transform="translate(845,639)"/>
<path d="M0 0 C0.99 0.33 1.98 0.66 3 1 C2.25278687 1.73150269 2.25278687 1.73150269 1.49047852 2.4777832 C-10.82510732 14.45948213 -10.82510732 14.45948213 -22.01953125 27.46484375 C-24.15789936 30.20212363 -26.41716569 32.80888427 -28.6875 35.4375 C-40.41584226 49.53336476 -50.20285142 64.94445607 -59 81 C-59.43296387 81.7822998 -59.86592773 82.56459961 -60.31201172 83.37060547 C-66.68714237 94.93905403 -72.15394231 106.71598576 -77 119 C-77.3000293 119.74652832 -77.60005859 120.49305664 -77.90917969 121.26220703 C-87.29607432 144.76015318 -93.19988226 169.71315266 -96.60546875 194.76171875 C-97 197 -97 197 -98 198 C-99.83115883 198.09851171 -101.66619933 198.12972629 -103.5 198.125 C-104.5003125 198.12757813 -105.500625 198.13015625 -106.53125 198.1328125 C-109 198 -109 198 -110 197 C-111.25405919 143.88163586 -78.75966861 83.6824665 -46 44 C-45.29617188 43.11054687 -44.59234375 42.22109375 -43.8671875 41.3046875 C-37.96750064 34.03915674 -31.5483141 27.31416757 -24.96633911 20.66879272 C-23.96078529 19.65340356 -22.95752045 18.63574156 -21.95675659 17.6156311 C-15.34068147 10.88786303 -8.52816703 4.26408351 0 0 Z " fill="#2DC73F" transform="translate(376,604)"/>
<path d="M0 0 C8.105625 -0.1546875 8.105625 -0.1546875 16.375 -0.3125 C18.05899902 -0.35802002 19.74299805 -0.40354004 21.47802734 -0.45043945 C29.91827257 -0.58494291 36.98786906 -0.34030899 44 5 C46.25390625 7.38671875 46.25390625 7.38671875 47.5625 9.6875 C48.24505859 10.83798828 48.24505859 10.83798828 48.94140625 12.01171875 C52.20091457 18.13382109 52.09372398 25.79641024 50.3515625 32.4921875 C47.72386666 38.26413476 43.25304872 42.67939549 37.37792969 45.06445312 C33.51309561 46.13485239 29.94878087 46.25309188 25.9765625 46.1953125 C25.31422607 46.19329834 24.65188965 46.19128418 23.96948242 46.18920898 C21.52125005 46.17883155 19.07311726 46.15090964 16.625 46.125 C8.395625 46.063125 8.395625 46.063125 0 46 C0 30.82 0 15.64 0 0 Z " fill="#142225" transform="translate(1285,694)"/>
<path d="M0 0 C7.1775 -0.0928125 7.1775 -0.0928125 14.5 -0.1875 C16.74006836 -0.22846802 16.74006836 -0.22846802 19.02539062 -0.27026367 C34.42915244 -0.36658897 34.42915244 -0.36658897 39.54077148 4.45263672 C43.3833586 8.8815861 44.17173279 11.55333778 44.25 17.3125 C44.27578125 18.44300781 44.3015625 19.57351563 44.328125 20.73828125 C43.81602011 25.82884775 41.80045972 28.25174418 38.125 31.6875 C32.99910448 35.48066269 29.30617126 36.24941422 22.94921875 36.1953125 C21.14070435 36.18781982 21.14070435 36.18781982 19.2956543 36.18017578 C17.77496338 36.16196777 16.25427246 36.14375977 14.6875 36.125 C9.840625 36.08375 4.99375 36.0425 0 36 C0 24.12 0 12.24 0 0 Z " fill="#162427" transform="translate(1285,649)"/>
<path d="M0 0 C-0.61198556 4.16150183 -1.57863511 7.52822631 -4 11 C-6.76622643 11.64001679 -8.90351152 11.91138245 -11.6875 12 C-18.68736607 12.56239845 -23.13706683 13.62264113 -28 19 C-33.12975669 25.87447322 -33.73669301 32.078986 -33.70703125 40.47265625 C-33.72215256 41.6363121 -33.73727386 42.79996796 -33.75285339 43.99888611 C-33.79557164 47.68695699 -33.80455369 51.37420685 -33.8125 55.0625 C-33.83565643 57.57489138 -33.86102413 60.08726341 -33.88867188 62.59960938 C-33.95136837 68.73314501 -33.98382747 74.86617241 -34 81 C-37.63 81 -41.26 81 -45 81 C-45 54.93 -45 28.86 -45 2 C-41.37 2 -37.74 2 -34 2 C-33.67 4.97 -33.34 7.94 -33 11 C-32.030625 9.9275 -31.06125 8.855 -30.0625 7.75 C-21.07514056 -1.02379842 -11.87103546 -0.49065129 0 0 Z " fill="#FCFCFC" transform="translate(1496,669)"/>
<path d="M0 0 C0.77923828 0.01353516 1.55847656 0.02707031 2.36132812 0.04101562 C4.26202404 0.07599776 6.16235834 0.12979041 8.0625 0.1875 C7.45273382 4.33391005 6.43514229 7.70362018 4.0625 11.1875 C1.0234375 11.78125 1.0234375 11.78125 -2.5625 11.6875 C-9.62623437 11.90619147 -13.81260702 13.30198631 -18.9375 18.1875 C-23.11868277 22.95304084 -25.03753675 27.06113893 -25.14282227 33.39331055 C-25.16276749 34.45418381 -25.18271271 35.51505707 -25.20326233 36.608078 C-25.21997482 37.75190445 -25.23668732 38.8957309 -25.25390625 40.07421875 C-25.27468735 41.24636429 -25.29546844 42.41850983 -25.31687927 43.62617493 C-25.38233818 47.37572286 -25.44124296 51.12534163 -25.5 54.875 C-25.54318868 57.41472091 -25.58680308 59.95443462 -25.63085938 62.49414062 C-25.7380159 68.72518755 -25.83929388 74.95630584 -25.9375 81.1875 C-29.5675 81.1875 -33.1975 81.1875 -36.9375 81.1875 C-36.9375 55.1175 -36.9375 29.0475 -36.9375 2.1875 C-33.3075 2.1875 -29.6775 2.1875 -25.9375 2.1875 C-25.6075 4.8275 -25.2775 7.4675 -24.9375 10.1875 C-24.36902344 9.71699219 -23.80054688 9.24648438 -23.21484375 8.76171875 C-22.44269531 8.13910156 -21.67054687 7.51648438 -20.875 6.875 C-20.12089844 6.26011719 -19.36679688 5.64523437 -18.58984375 5.01171875 C-12.40157449 0.7555748 -7.28892513 -0.24358876 0 0 Z " fill="#FBFBFB" transform="translate(1723.9375,668.8125)"/>
<path d="M0 0 C6.93887082 3.49970972 12.95104077 9.90609718 16.23828125 16.94140625 C17.23828125 20.19140625 17.23828125 20.19140625 17.23828125 25.19140625 C-0.91171875 25.19140625 -19.06171875 25.19140625 -37.76171875 25.19140625 C-37.76171875 16.86112866 -35.65714859 12.35698894 -30.015625 6.32421875 C-21.50068203 -1.29940503 -10.97689144 -3.21388476 0 0 Z " fill="#142124" transform="translate(1644.76171875,679.80859375)"/>
<path d="M0 0 C-0.33 1.32 -0.66 2.64 -1 4 C-0.34 4.33 0.32 4.66 1 5 C0.41573242 4.76933838 -0.16853516 4.53867676 -0.77050781 4.30102539 C-3.05882175 3.73744281 -3.05882175 3.73744281 -4.83105469 5.26342773 C-5.43852539 5.89708252 -6.04599609 6.5307373 -6.671875 7.18359375 C-7.33574219 7.86357422 -7.99960937 8.54355469 -8.68359375 9.24414062 C-9.36550781 9.96794922 -10.04742187 10.69175781 -10.75 11.4375 C-11.44738281 12.15744141 -12.14476562 12.87738281 -12.86328125 13.61914062 C-14.58721636 15.40211461 -16.29846609 17.19567826 -18 19 C-18 16 -18 16 -16.56298828 14.19067383 C-15.90540527 13.53607178 -15.24782227 12.88146973 -14.5703125 12.20703125 C-13.85746094 11.49482422 -13.14460938 10.78261719 -12.41015625 10.04882812 C-11.65605469 9.31083984 -10.90195312 8.57285156 -10.125 7.8125 C-9.00544922 6.68811523 -9.00544922 6.68811523 -7.86328125 5.54101562 C-2.26680505 0 -2.26680505 0 0 0 Z " fill="#174028" transform="translate(472,543)"/>
<path d="M0 0 C0.66 0.33 1.32 0.66 2 1 C2 1.99 2 2.98 2 4 C-0.31 4.66 -2.62 5.32 -5 6 C-3.86695008 2.60085025 -2.87481525 1.94745549 0 0 Z " fill="#2AB73C" transform="translate(503,515)"/>
</svg>
